<svg width="600" height="349" viewBox="0 0 600 349" fill="none" xmlns="http://www.w3.org/2000/svg">
<g id="01-class-tree">
<g id="ShapeInnerClear">
<g id="ShapeInnerForeGrey">
<rect x="233" y="58" width="135" height="48" rx="11" fill="#D8DBE1"/>
<text id="Label" fill="#333333" xml:space="preserve" style="white-space: pre" font-family="IBM Plex Sans" font-size="14" font-weight="500" letter-spacing="0em"><tspan x="252.163" y="87.25">MuseumObject</tspan></text>
<rect x="233" y="58" width="135" height="48" rx="11" stroke="#333333" stroke-width="2"/>
</g>
<rect x="228" y="53" width="145" height="58" rx="15" stroke="#333333" stroke-width="2"/>
</g>
<g id="ShapeInnerClear_2">
<g id="ShapeInnerForeTurquoise">
<rect x="255" y="162" width="86" height="37" rx="9" fill="#97CFC1"/>
<text id="Label_2" fill="#333333" xml:space="preserve" style="white-space: pre" font-family="IBM Plex Sans" font-size="13" font-weight="500" letter-spacing="0em"><tspan x="270.286" y="185.375">Ceramics</tspan></text>
<rect x="255" y="162" width="86" height="37" rx="9" stroke="#333333" stroke-width="2"/>
</g>
<rect x="250" y="157" width="96" height="47" rx="13" stroke="#333333" stroke-width="2"/>
</g>
<g id="ShapeInnerClear_3">
<g id="ShapeInnerForeTurquoise_2">
<rect x="423" y="162" width="83" height="37" rx="9" fill="#97CFC1"/>
<text id="Label_3" fill="#333333" xml:space="preserve" style="white-space: pre" font-family="IBM Plex Sans" font-size="13" font-weight="500" letter-spacing="0em"><tspan x="438.151" y="185.375">Basketry</tspan></text>
<rect x="423" y="162" width="83" height="37" rx="9" stroke="#333333" stroke-width="2"/>
</g>
<rect x="418" y="157" width="93" height="47" rx="13" stroke="#333333" stroke-width="2"/>
</g>
<g id="ShapeInnerClear_4">
<g id="ShapeInnerForeTurquoise_3">
<rect x="94" y="162" width="79" height="37" rx="9" fill="#97CFC1"/>
<text id="Label_4" fill="#333333" xml:space="preserve" style="white-space: pre" font-family="IBM Plex Sans" font-size="13" font-weight="500" letter-spacing="0em"><tspan x="109.087" y="185.375">Painting</tspan></text>
<rect x="94" y="162" width="79" height="37" rx="9" stroke="#333333" stroke-width="2"/>
</g>
<rect x="89" y="157" width="89" height="47" rx="13" stroke="#333333" stroke-width="2"/>
</g>
<g id="ShapeInnerClear_5">
<g id="ShapeInnerForeYellow">
<rect x="56" y="255" width="154" height="37" rx="9" fill="#FFD46F"/>
<text id="Label_5" fill="#333333" xml:space="preserve" style="white-space: pre" font-family="IBM Plex Sans" font-size="13" font-weight="500" letter-spacing="0em"><tspan x="71.1294" y="278.375">Cypress and Poppies</tspan></text>
<rect x="56" y="255" width="154" height="37" rx="9" stroke="#333333" stroke-width="2"/>
</g>
<rect x="51" y="250" width="164" height="47" rx="13" stroke="#333333" stroke-width="2"/>
</g>
<g id="Arrow">
<path id="Line" d="M299 153L299 126" stroke="#333333" stroke-width="2" stroke-miterlimit="16" stroke-linecap="round" stroke-dasharray="2 4"/>
<path id="Tip" d="M292.655 126.195L298.825 118.195C299.029 117.931 299.429 117.936 299.625 118.206L305.455 126.206C305.696 126.536 305.46 127 305.051 127L293.051 127C292.636 127 292.402 126.523 292.655 126.195Z" fill="white" stroke="#333333" stroke-width="2"/>
</g>
<g id="Arrow_2">
<path id="Line_2" d="M132 246L132 219" stroke="#333333" stroke-width="2" stroke-miterlimit="16" stroke-linecap="round" stroke-dasharray="2 4"/>
<path id="Tip_2" d="M125.655 219.195L131.825 211.195C132.029 210.931 132.429 210.936 132.625 211.206L138.455 219.206C138.696 219.536 138.46 220 138.051 220L126.051 220C125.636 220 125.402 219.523 125.655 219.195Z" fill="white" stroke="#333333" stroke-width="2"/>
</g>
<g id="Arrow_3">
<path id="Line_3" d="M468 153L468 122C468 100.185 450.315 82.5 428.5 82.5V82.5L389 82.5" stroke="#333333" stroke-width="2" stroke-miterlimit="1.11658" stroke-linecap="round" stroke-linejoin="round" stroke-dasharray="2 4"/>
<path id="Tip_3" d="M390.195 89.3447L382.195 83.1749C381.931 82.9713 381.936 82.5712 382.206 82.3749L390.206 76.5451C390.536 76.3043 391 76.5403 391 76.9492L391 88.9488C391 89.3639 390.523 89.5983 390.195 89.3447Z" fill="white" stroke="#333333" stroke-width="2"/>
</g>
<g id="Arrow_4">
<path id="Line_4" d="M132 153L132 122C132 100.185 149.685 82.5 171.5 82.5V82.5L211 82.5" stroke="#333333" stroke-width="2" stroke-miterlimit="1.11658" stroke-linecap="round" stroke-linejoin="round" stroke-dasharray="2 4"/>
<path id="Tip_4" d="M209.805 89.3447L217.805 83.1749C218.069 82.9713 218.064 82.5712 217.794 82.3749L209.794 76.5451C209.464 76.3043 209 76.5403 209 76.9492L209 88.9488C209 89.3639 209.477 89.5983 209.805 89.3447Z" fill="white" stroke="#333333" stroke-width="2"/>
</g>
</g>
</svg>
